<svg xmlns="http://www.w3.org/2000/svg" xmlns:xlink="http://www.w3.org/1999/xlink" width="1080" zoomAndPan="magnify" viewBox="0 0 810 809.999993" height="1080" preserveAspectRatio="xMidYMid meet" version="1.0"><defs><clipPath id="76f8467ccb"><path d="M 99 182 L 712 182 L 712 691 L 99 691 Z M 99 182 " clip-rule="nonzero"/></clipPath><clipPath id="3861487a9a"><path d="M -2.097656 -0.5 L 810.902344 -1.917969 L 812.320312 811.078125 L -0.679688 812.5 Z M -2.097656 -0.5 " clip-rule="nonzero"/></clipPath><clipPath id="c558f9a5d5"><path d="M -362.015625 -390.644531 L 1074.234375 -393.152344 L 1077.476562 1465.347656 L -358.769531 1467.851562 Z M -362.015625 -390.644531 " clip-rule="nonzero"/></clipPath></defs><g clip-path="url(#76f8467ccb)"><g clip-path="url(#3861487a9a)"><g clip-path="url(#c558f9a5d5)"><path fill="#353869" d="M 99.769531 335.121094 L 99.503906 183.757812 L 301.339844 183.402344 L 407.847656 341.222656 L 511.144531 183.039062 L 711.65625 182.6875 L 490.464844 505.71875 L 490.785156 690.273438 L 326.128906 690.5625 L 325.808594 506.003906 L 206 334.933594 C 206 334.933594 99.765625 333.792969 99.769531 335.121094 Z M 99.769531 335.121094 " fill-opacity="1" fill-rule="nonzero"/></g></g></g></svg>